<mxfile host="65bd71144e">
    <diagram name="Forgot Password Flow" id="0q3C4E9QsT1XWj1o5uUd">
        <mxGraphModel dx="959" dy="463" grid="1" gridSize="10" guides="1" tooltips="1" connect="1" arrows="1" fold="1" page="1" pageScale="1" pageWidth="827" pageHeight="1169" math="0" shadow="0">
            <root>
                <mxCell id="0"/>
                <mxCell id="1" parent="0"/>
                <mxCell id="A" value="User clicks Forgot Password" style="rounded=1;whiteSpace=wrap;html=1;" parent="1" vertex="1">
                    <mxGeometry x="100" y="40" width="200" height="60" as="geometry"/>
                </mxCell>
                <mxCell id="B" value="Enter Email Address" style="rounded=1;whiteSpace=wrap;html=1;" parent="1" vertex="1">
                    <mxGeometry x="100" y="120" width="200" height="60" as="geometry"/>
                </mxCell>
                <mxCell id="C" value="Check if Email Exists in DB" style="rounded=1;whiteSpace=wrap;html=1;" parent="1" vertex="1">
                    <mxGeometry x="100" y="200" width="200" height="60" as="geometry"/>
                </mxCell>
                <mxCell id="D1" value="Generate Token (JWT)" style="rounded=1;whiteSpace=wrap;html=1;" parent="1" vertex="1">
                    <mxGeometry x="51" y="280" width="200" height="60" as="geometry"/>
                </mxCell>
                <mxCell id="D2" value="Show Error: Email Not Found" style="rounded=1;whiteSpace=wrap;html=1;" parent="1" vertex="1">
                    <mxGeometry x="300" y="280" width="200" height="60" as="geometry"/>
                </mxCell>
                <mxCell id="E" value="Save Token in DB with Expiry Time" style="rounded=1;whiteSpace=wrap;html=1;" parent="1" vertex="1">
                    <mxGeometry x="50" y="360" width="200" height="60" as="geometry"/>
                </mxCell>
                <mxCell id="F" value="Send Email with Reset Link" style="rounded=1;whiteSpace=wrap;html=1;" parent="1" vertex="1">
                    <mxGeometry x="50" y="440" width="200" height="60" as="geometry"/>
                </mxCell>
                <mxCell id="G" value="User Clicks Reset Link" style="rounded=1;whiteSpace=wrap;html=1;" parent="1" vertex="1">
                    <mxGeometry x="50" y="520" width="200" height="60" as="geometry"/>
                </mxCell>
                <mxCell id="H" value="Verify Token Validity" style="rounded=1;whiteSpace=wrap;html=1;" parent="1" vertex="1">
                    <mxGeometry x="50" y="600" width="200" height="60" as="geometry"/>
                </mxCell>
                <mxCell id="I1" value="Show Reset Password Form" style="rounded=1;whiteSpace=wrap;html=1;" parent="1" vertex="1">
                    <mxGeometry x="20" y="680" width="200" height="60" as="geometry"/>
                </mxCell>
                <mxCell id="I2" value="Show Error: Token Expired or Invalid" style="rounded=1;whiteSpace=wrap;html=1;" parent="1" vertex="1">
                    <mxGeometry x="250" y="680" width="200" height="60" as="geometry"/>
                </mxCell>
                <mxCell id="J" value="Enter New Password" style="rounded=1;whiteSpace=wrap;html=1;" parent="1" vertex="1">
                    <mxGeometry x="20" y="760" width="200" height="60" as="geometry"/>
                </mxCell>
                <mxCell id="K" value="Hash Password + Save in DB\nInvalidate Reset Token" style="rounded=1;whiteSpace=wrap;html=1;" parent="1" vertex="1">
                    <mxGeometry x="20" y="840" width="200" height="60" as="geometry"/>
                </mxCell>
                <mxCell id="L" value="Show Success Message: Password Reset Successful" style="rounded=1;whiteSpace=wrap;html=1;" parent="1" vertex="1">
                    <mxGeometry x="20" y="920" width="200" height="60" as="geometry"/>
                </mxCell>
                <mxCell id="e1" style="endArrow=block;" parent="1" source="A" target="B" edge="1">
                    <mxGeometry relative="1" as="geometry"/>
                </mxCell>
                <mxCell id="e2" style="endArrow=block;" parent="1" source="B" target="C" edge="1">
                    <mxGeometry relative="1" as="geometry"/>
                </mxCell>
                <mxCell id="e3" style="endArrow=block;" parent="1" source="C" target="D1" label="Yes" edge="1">
                    <mxGeometry relative="1" as="geometry"/>
                </mxCell>
                <mxCell id="e4" style="endArrow=block;" parent="1" source="C" target="D2" label="No" edge="1">
                    <mxGeometry relative="1" as="geometry"/>
                </mxCell>
                <mxCell id="e5" style="endArrow=block;" parent="1" source="D1" target="E" edge="1">
                    <mxGeometry relative="1" as="geometry"/>
                </mxCell>
                <mxCell id="e6" style="endArrow=block;" parent="1" source="E" target="F" edge="1">
                    <mxGeometry relative="1" as="geometry"/>
                </mxCell>
                <mxCell id="e7" style="endArrow=block;" parent="1" source="F" target="G" edge="1">
                    <mxGeometry relative="1" as="geometry"/>
                </mxCell>
                <mxCell id="e8" style="endArrow=block;" parent="1" source="G" target="H" edge="1">
                    <mxGeometry relative="1" as="geometry"/>
                </mxCell>
                <mxCell id="e9" style="endArrow=block;" parent="1" source="H" target="I1" label="Yes" edge="1">
                    <mxGeometry relative="1" as="geometry"/>
                </mxCell>
                <mxCell id="e10" style="endArrow=block;" parent="1" source="H" target="I2" label="No" edge="1">
                    <mxGeometry relative="1" as="geometry"/>
                </mxCell>
                <mxCell id="e11" style="endArrow=block;" parent="1" source="I1" target="J" edge="1">
                    <mxGeometry relative="1" as="geometry"/>
                </mxCell>
                <mxCell id="e12" style="endArrow=block;" parent="1" source="J" target="K" edge="1">
                    <mxGeometry relative="1" as="geometry"/>
                </mxCell>
                <mxCell id="e13" style="endArrow=block;" parent="1" source="K" target="L" edge="1">
                    <mxGeometry relative="1" as="geometry"/>
                </mxCell>
            </root>
        </mxGraphModel>
    </diagram>
</mxfile>